<mxfile host="app.diagrams.net" modified="2021-01-22T10:43:23.398Z" agent="5.0 (X11)" etag="omv6FcUJl-ShdYNDsasD" version="14.0.1" type="github">
  <diagram name="Page-1" id="bd83a815-5ea8-2e97-e5ec-87c9f400f2fa">
    <mxGraphModel dx="1355" dy="799" grid="1" gridSize="10" guides="1" tooltips="1" connect="1" arrows="1" fold="1" page="1" pageScale="1.5" pageWidth="1169" pageHeight="826" background="#ffffff" math="0" shadow="0">
      <root>
        <mxCell id="0" style=";html=1;" />
        <mxCell id="1" style=";html=1;" parent="0" />
        <mxCell id="1516e18e63f93b96-1" value="&lt;table style=&quot;width: 100% ; height: 100% ; border-collapse: collapse&quot; width=&quot;100%&quot; cellpadding=&quot;4&quot; border=&quot;1&quot;&gt;&lt;tbody&gt;&lt;tr style=&quot;background-color: #a7c942 ; color: #ffffff ; border: 1px solid #98bf21&quot;&gt;&lt;th&gt;HTTP-Method&lt;br&gt;&lt;/th&gt;&lt;th&gt;URI&lt;br&gt;&lt;/th&gt;&lt;th&gt;Funktion&lt;br&gt;&lt;/th&gt;&lt;th&gt;Beschreibung&lt;/th&gt;&lt;td&gt;Parameter&lt;br&gt;&lt;/td&gt;&lt;/tr&gt;&lt;tr style=&quot;border: 1px solid #98bf21&quot;&gt;&lt;td&gt;GET&lt;br&gt;&lt;/td&gt;&lt;td&gt;/api/mannschaftsverwaltung/mannschaft&lt;br&gt;&lt;/td&gt;&lt;td&gt;readAll&lt;br&gt;&lt;/td&gt;&lt;td&gt;Rückgabe aller Mannschaften&lt;br&gt;&lt;/td&gt;&lt;td&gt;-&lt;br&gt;&lt;/td&gt;&lt;/tr&gt;&lt;tr style=&quot;background-color: #eaf2d3 ; border: 1px solid #98bf21&quot;&gt;&lt;td&gt;GET&lt;br&gt;&lt;/td&gt;&lt;td&gt;/api/mannschaftsverwaltung/mannschaft/{mannschaftId}&lt;/td&gt;&lt;td&gt;readMannschaftById&lt;br&gt;&lt;/td&gt;&lt;td&gt;Rückgabe einer Mannschaft gefilter nach der MannschaftsId&lt;br&gt;&lt;/td&gt;&lt;td&gt;MannschaftsId: number&lt;br&gt;&lt;/td&gt;&lt;/tr&gt;&lt;tr style=&quot;border: 1px solid #98bf21&quot;&gt;&lt;td&gt;POST&lt;br&gt;&lt;/td&gt;&lt;td&gt;/api/mannschaftsverwaltung/mannschaft&lt;/td&gt;&lt;td&gt;createMannschaft&lt;br&gt;&lt;/td&gt;&lt;td&gt;Erzeugen einer Mannschaft&lt;br&gt;&lt;/td&gt;&lt;td&gt;{&lt;br&gt;&amp;nbsp;&quot;id&quot;: number,&lt;br&gt;&amp;nbsp;&quot;name&quot;: string,&lt;br&gt;&amp;nbsp;...&lt;br&gt;}&lt;br&gt;&lt;/td&gt;&lt;/tr&gt;&lt;tr style=&quot;background-color: #eaf2d3 ; border: 1px solid #98bf21&quot;&gt;&lt;td&gt;PUT&lt;br&gt;&lt;/td&gt;&lt;td&gt;/api/mannschaftsverwaltung/mannschaft/{mannschaftId}&lt;/td&gt;&lt;td&gt;updateMannschaft&lt;br&gt;&lt;/td&gt;&lt;td&gt;Veränderung einer Mannschaft&lt;br&gt;&lt;/td&gt;&lt;td&gt;MannschaftsId: number&lt;br&gt;&lt;/td&gt;&lt;/tr&gt;&lt;tr style=&quot;border: 1px solid #98bf21&quot;&gt;&lt;td&gt;DELETE&lt;br&gt;&lt;/td&gt;&lt;td&gt;/api/mannschaftsverwaltung/mannschaft/{mannschaftId}&lt;/td&gt;&lt;td&gt;deleteMannschaftById&lt;br&gt;&lt;/td&gt;&lt;td&gt;Löschen einer Mannschaft&lt;br&gt;&lt;/td&gt;&lt;td&gt;MannschaftsId: number&lt;/td&gt;&lt;/tr&gt;&lt;/tbody&gt;&lt;/table&gt;" style="text;html=1;strokeColor=#c0c0c0;fillColor=#ffffff;overflow=fill;rounded=0;shadow=1;fontSize=14;fontColor=#000000;" parent="1" vertex="1">
          <mxGeometry x="160" y="160" width="1220" height="660" as="geometry" />
        </mxCell>
        <mxCell id="1516e18e63f93b96-3" value="Api Schnittstelle - Mannschaftsverwaltung" style="text;strokeColor=none;fillColor=none;html=1;fontSize=24;fontStyle=1;verticalAlign=middle;align=center;rounded=0;shadow=1;" parent="1" vertex="1">
          <mxGeometry x="300" y="70" width="780" height="40" as="geometry" />
        </mxCell>
      </root>
    </mxGraphModel>
  </diagram>
</mxfile>
